<?xml version="1.0" encoding="UTF-8" standalone="no"?>
<svg
   xmlns:osb="http://www.openswatchbook.org/uri/2009/osb"
   xmlns:dc="http://purl.org/dc/elements/1.1/"
   xmlns:cc="http://creativecommons.org/ns#"
   xmlns:rdf="http://www.w3.org/1999/02/22-rdf-syntax-ns#"
   xmlns:svg="http://www.w3.org/2000/svg"
   xmlns="http://www.w3.org/2000/svg"
   xmlns:xlink="http://www.w3.org/1999/xlink"
   xmlns:sodipodi="http://sodipodi.sourceforge.net/DTD/sodipodi-0.dtd"
   xmlns:inkscape="http://www.inkscape.org/namespaces/inkscape"
   width="226.29927pt"
   height="83.148567pt"
   viewBox="0 0 226.29927 83.148567"
   version="1.1"
   id="svg4136"
   inkscape:version="0.91 r13725"
   sodipodi:docname="soft29v2.svg"
   inkscape:export-filename="C:\Users\Lenovo\Desktop\soft29 logo\soft29v2.png"
   inkscape:export-xdpi="99.584953"
   inkscape:export-ydpi="99.584953">
  <metadata
     id="metadata4150">
    <rdf:RDF>
      <cc:Work
         rdf:about="">
        <dc:format>image/svg+xml</dc:format>
        <dc:type
           rdf:resource="http://purl.org/dc/dcmitype/StillImage" />
        <dc:title />
      </cc:Work>
    </rdf:RDF>
  </metadata>
  <sodipodi:namedview
     pagecolor="#ffffff"
     bordercolor="#666666"
     borderopacity="1"
     objecttolerance="10"
     gridtolerance="10"
     guidetolerance="10"
     inkscape:pageopacity="0"
     inkscape:pageshadow="2"
     inkscape:window-width="1920"
     inkscape:window-height="1017"
     id="namedview4148"
     showgrid="false"
     inkscape:zoom="0.85858586"
     inkscape:cx="-179.41008"
     inkscape:cy="42.29962"
     inkscape:window-x="-8"
     inkscape:window-y="-8"
     inkscape:window-maximized="1"
     inkscape:current-layer="svg4136"
     fit-margin-top="0"
     fit-margin-left="0"
     fit-margin-right="0"
     fit-margin-bottom="0" />
  <defs
     id="defs4138">
    <linearGradient
       id="linearGradient4172"
       osb:paint="solid">
      <stop
         style="stop-color:#464646;stop-opacity:1;"
         offset="0"
         id="stop4174" />
    </linearGradient>
    <clipPath
       id="clip1">
      <path
         d="m 0,767.77734 158.5625,0 0,24.22266 L 0,792 Z m 0,0"
         id="path4141"
         inkscape:connector-curvature="0" />
    </clipPath>
    <linearGradient
       inkscape:collect="always"
       xlink:href="#linearGradient4172"
       id="linearGradient4176"
       x1="22.828129"
       y1="781.50781"
       x2="86.86776"
       y2="781.50781"
       gradientUnits="userSpaceOnUse" />
    <linearGradient
       inkscape:collect="always"
       xlink:href="#linearGradient4172"
       id="linearGradient5366"
       gradientUnits="userSpaceOnUse"
       x1="22.828129"
       y1="781.50781"
       x2="86.86776"
       y2="781.50781" />
    <linearGradient
       inkscape:collect="always"
       xlink:href="#linearGradient4172"
       id="linearGradient5368"
       gradientUnits="userSpaceOnUse"
       x1="22.828129"
       y1="781.50781"
       x2="86.86776"
       y2="781.50781" />
  </defs>
  <g
     id="surface1"
     transform="matrix(3,0,0,3,-68.484384,-2313.1173)"
     style="fill:url(#linearGradient4176);fill-opacity:1">
    <g
       clip-path="url(#clip1)"
       id="g4144"
       style="clip-rule:nonzero;fill:url(#linearGradient5368);fill-opacity:1">
      <path
         style="fill:url(#linearGradient5366);fill-opacity:1;fill-rule:nonzero;stroke:none"
         d="m 41.152344,784.48437 c 0,-3.1875 0.121094,-4.48046 2.308594,-4.48046 2.195312,0 2.320312,1.29296 2.320312,4.48046 0,3.16016 -0.125,4.42969 -2.320312,4.42969 -2.1875,0 -2.308594,-1.26953 -2.308594,-4.42969 m -4.808594,0 c 0,4.22657 0.847656,7.49219 7.117188,7.49219 6.273437,0 7.121093,-3.26562 7.121093,-7.49219 0,-4.25781 -0.847656,-7.54687 -7.121093,-7.54687 -6.269532,0 -7.117188,3.28906 -7.117188,7.54687 m 49.570483,-7.13488 -15.742358,-0.0643 0,-4.42969 c 0,-0.32422 -0.171875,-0.47266 -0.449219,-0.47266 -0.04687,0 -0.171875,0.0274 -0.296875,0.0508 l -3.4375,0.59766 c -0.324219,0.0742 -0.496093,0.29687 -0.496093,0.69531 l 0,3.5586 -6.421876,0 0,-1.56641 c 0,-0.51953 0.07422,-0.87109 0.347657,-1.12109 0.300781,-0.2461 0.671875,-0.32032 1.320312,-0.32032 0.421875,0 1.042969,0.0742 1.367188,0.1211 0.05078,0 0.101562,0.0273 0.175781,0.0273 0.125,0.0234 0.273438,0.0508 0.347656,0.0508 0.175782,0 0.226563,-0.125 0.25,-0.35156 l 0.300782,-1.99219 c 0,0 0.02344,-0.14844 0.02344,-0.22265 0,-0.19532 -0.07422,-0.32422 -0.273437,-0.39844 -0.351563,-0.0977 -1.644532,-0.47266 -3.761719,-0.47266 -3.308594,0 -4.828125,1.49219 -4.828125,4.45703 l 0,1.78907 -2.117188,0 c -0.195312,0 -0.347656,0.15234 -0.347656,0.35156 l 0,2.5625 c 0,0.19922 0.152344,0.35156 0.347656,0.35156 l 2.117188,0 0,10.73047 c 0,0.19531 0.148437,0.34766 0.347656,0.34766 l 4.035156,0 c 0.195313,0 0.347656,-0.15235 0.347656,-0.34766 l 0,-10.73047 6.421876,0 0,6.66797 c 0,3.41406 1.71875,4.63281 5.105468,4.63281 1.914063,0 3.1875,-0.39844 3.480469,-0.5 0.273437,-0.10156 0.375,-0.22656 0.375,-0.44531 0,-0.10156 -0.02344,-0.22656 -0.02344,-0.22656 l -0.375,-1.96875 c -0.04688,-0.22266 -0.148438,-0.29297 -0.296876,-0.29297 -0.02344,0 -0.101562,0 -0.199218,0.0195 -0.02344,0 -0.07422,0.0273 -0.125,0.0273 -0.324219,0.0469 -0.898438,0.125 -1.570313,0.125 -1.445312,0 -1.691406,-0.67187 -1.691406,-1.67187 l 0,-6.34375 7.09375,0 c 7.160094,-0.0312 11.671548,0.92606 8.648608,-3.22466 z m -58.332202,8.70129 c 1.292969,0.25 1.867188,0.39844 1.867188,1.54297 0,1.11719 -0.996094,1.39453 -1.917969,1.39453 -1.417969,0 -3.109375,-0.39844 -3.757812,-0.57031 l 0.02344,0 c -0.02344,0 -0.05078,-0.0234 -0.07422,-0.0234 -0.101562,-0.0312 -0.199218,-0.0508 -0.269531,-0.0508 -0.125,0 -0.25,0.0937 -0.28125,0.34375 l -0.292969,1.76953 c -0.02734,0.125 -0.05078,0.29688 -0.05078,0.37109 0,0.17579 0.07422,0.25 0.269531,0.34766 0.550782,0.23047 2.792969,0.77734 5.109375,0.77734 3.40625,0 5.996094,-1.19921 5.996094,-4.75781 0,-3.41015 -2.019531,-4.05859 -3.957031,-4.40625 l -0.402344,-0.0742 c -1.117188,-0.19922 -2.089844,-0.39843 -2.089844,-1.54687 0,-1.14453 1.171875,-1.28906 1.992188,-1.28906 1.074218,0 2.214844,0.19531 2.789062,0.32031 0.324219,0.0781 0.398438,0.0781 0.496094,0.0781 0.128906,0 0.300781,-0.1289 0.351562,-0.2539 0.09766,-0.59766 0.25,-1.21485 0.347657,-1.81641 0,0 0.02344,-0.125 0.02344,-0.19922 0,-0.29687 -0.121094,-0.42187 -0.519531,-0.52344 C 32.460938,777.28516 30.917969,776.9375 29,776.9375 c -2.386719,0 -5.996094,0.39844 -5.996094,4.55469 0,3.63672 2.4375,4.16015 4.304688,4.50781 z"
         id="path4146"
         inkscape:connector-curvature="0"
         sodipodi:nodetypes="csssccssscccssccsccscsccsccscsscsssscssssccsscsccsccssccccsscccsccscssccsscsccscsscc" />
    </g>
  </g>
  <ellipse
     style="fill:#eb3f48;fill-opacity:1;stroke:none"
     id="path4152"
     cx="193.86392"
     cy="50.653275"
     rx="32.435345"
     ry="32.495293" />
  <text
     xml:space="preserve"
     style="font-style:normal;font-weight:normal;font-size:96px;line-height:125%;font-family:sans-serif;letter-spacing:0px;word-spacing:0px;fill:#000000;fill-opacity:1;stroke:none;stroke-width:1px;stroke-linecap:butt;stroke-linejoin:miter;stroke-opacity:1"
     x="174.0074"
     y="43.315598"
     id="text4156"
     sodipodi:linespacing="125%"><tspan
       sodipodi:role="line"
       id="tspan4158"
       x="174.0074"
       y="43.315598" /></text>
  <g
     transform="scale(0.94919692,1.0535222)"
     style="font-style:italic;font-variant:normal;font-weight:bold;font-stretch:normal;font-size:40.36813736px;line-height:125%;font-family:sans-serif;-inkscape-font-specification:'sans-serif, Bold Italic';text-align:start;letter-spacing:0px;word-spacing:0px;writing-mode:lr-tb;text-anchor:start;fill:#000000;fill-opacity:1;stroke:none;stroke-width:1px;stroke-linecap:butt;stroke-linejoin:miter;stroke-opacity:1"
     id="text4168">
    <path
       d="m 186.60589,57.085261 12.79245,0 -1.08411,5.578214 -21.36673,0 1.10382,-5.617636 12.51649,-9.441571 q 2.04994,-1.576881 3.11433,-3.193183 1.08411,-1.616303 1.08411,-3.13405 0,-1.616302 -1.10382,-2.503298 -1.10381,-0.886995 -3.09462,-0.886995 -1.87255,0 -4.17874,0.749018 -2.30618,0.729308 -5.2037,2.266766 l 1.2615,-6.248388 q 2.6807,-0.985551 5.26284,-1.458615 2.58214,-0.492775 5.10515,-0.492775 4.49411,0 7.07625,1.95139 2.58214,1.931678 2.58214,5.282549 0,2.877806 -1.57688,5.243127 -1.57688,2.365321 -6.93827,6.386365 l -7.35221,5.519082 z"
       style="font-style:italic;font-variant:normal;font-weight:bold;font-stretch:normal;font-size:40.36813736px;line-height:125%;font-family:sans-serif;-inkscape-font-specification:'sans-serif, Bold Italic';text-align:start;writing-mode:lr-tb;text-anchor:start;fill:#ffffff"
       id="path4154" />
    <path
       d="m 206.35632,62.013012 1.04468,-5.440237 q 1.71486,0.886995 3.31145,1.320637 1.59659,0.413931 3.19318,0.413931 3.66625,0 5.93302,-1.9711 2.26676,-1.971101 2.73983,-5.538793 -1.51775,1.005262 -3.13405,1.498037 -1.61631,0.473064 -3.44943,0.473064 -3.60711,0 -5.9133,-2.1485 -2.30619,-2.148499 -2.30619,-5.479659 0,-5.440237 3.54798,-8.909374 3.5677,-3.488848 9.16562,-3.488848 5.02631,0 7.76614,2.858096 2.75954,2.838384 2.75954,8.04209 0,4.001334 -1.22209,7.66758 -1.22208,3.646536 -3.44942,6.307522 -2.36532,2.818674 -5.57822,4.237866 -3.19318,1.419192 -7.21422,1.419192 -1.87255,0 -3.64654,-0.315376 -1.77399,-0.315376 -3.54798,-0.946128 z m 12.02371,-14.13279 q 2.24706,0 3.68596,-1.852835 1.4389,-1.852834 1.4389,-4.750352 0,-1.793701 -0.86728,-2.759541 -0.84757,-0.965839 -2.44416,-0.965839 -2.22735,0 -3.70567,1.833124 -1.45862,1.833123 -1.45862,4.592664 0,1.892256 0.86729,2.897517 0.86728,1.005262 2.48358,1.005262 z"
       style="font-style:italic;font-variant:normal;font-weight:bold;font-stretch:normal;font-size:40.36813736px;line-height:125%;font-family:sans-serif;-inkscape-font-specification:'sans-serif, Bold Italic';text-align:start;writing-mode:lr-tb;text-anchor:start;fill:#ffffff"
       id="path4156" />
  </g>
</svg>
