<?xml version="1.0" encoding="UTF-8" standalone="no"?>
<!-- Generator: Adobe Illustrator 16.0.0, SVG Export Plug-In . SVG Version: 6.00 Build 0)  -->

<svg
   xmlns:dc="http://purl.org/dc/elements/1.1/"
   xmlns:cc="http://creativecommons.org/ns#"
   xmlns:rdf="http://www.w3.org/1999/02/22-rdf-syntax-ns#"
   xmlns:svg="http://www.w3.org/2000/svg"
   xmlns="http://www.w3.org/2000/svg"
   xmlns:sodipodi="http://sodipodi.sourceforge.net/DTD/sodipodi-0.dtd"
   xmlns:inkscape="http://www.inkscape.org/namespaces/inkscape"
   version="1.1"
   id="Layer_1"
   x="0px"
   y="0px"
   width="68.037px"
   height="19.193px"
   viewBox="0 0 68.037 19.193"
   enable-background="new 0 0 68.037 19.193"
   xml:space="preserve"
   inkscape:version="0.91 r13725"
   sodipodi:docname="soft29v2.svg"><metadata
     id="metadata33"><rdf:RDF><cc:Work
         rdf:about=""><dc:format>image/svg+xml</dc:format><dc:type
           rdf:resource="http://purl.org/dc/dcmitype/StillImage" /><dc:title></dc:title></cc:Work></rdf:RDF></metadata><defs
     id="defs31" /><sodipodi:namedview
     pagecolor="#ffffff"
     bordercolor="#666666"
     borderopacity="1"
     objecttolerance="10"
     gridtolerance="10"
     guidetolerance="10"
     inkscape:pageopacity="0"
     inkscape:pageshadow="2"
     inkscape:window-width="1920"
     inkscape:window-height="1017"
     id="namedview29"
     showgrid="false"
     inkscape:zoom="8.5541687"
     inkscape:cx="8.2046285"
     inkscape:cy="-2.5299661"
     inkscape:window-x="-8"
     inkscape:window-y="-8"
     inkscape:window-maximized="1"
     inkscape:current-layer="Layer_1" /><g
     id="g3"><g
       id="g5"><rect
         x="45.424"
         y="0.015"
         fill="#231F20"
         width="2.476"
         height="2.506"
         id="rect7"
         style="fill:#00adee;fill-opacity:1" /><rect
         x="35.612"
         y="0.015"
         fill="#231F20"
         width="2.423"
         height="2.506"
         id="rect9"
         style="fill:#00adee;fill-opacity:1" /><rect
         x="40.509"
         y="0.015"
         fill="#231F20"
         width="2.439"
         height="2.506"
         id="rect11"
         style="fill:#00adee;fill-opacity:1" /><rect
         x="30.658"
         y="0.015"
         fill="#231F20"
         width="2.474"
         height="2.506"
         id="rect13"
         style="fill:#00adee;fill-opacity:1" /></g><g
       id="g15"><path
         fill="#231F20"
         d="M0,18.094v-2.629c0.689,0.484,1.392,0.875,2.109,1.175c0.721,0.3,1.33,0.448,1.822,0.448    c0.506,0,0.952-0.126,1.315-0.373c0.367-0.253,0.549-0.553,0.549-0.9c0-0.355-0.115-0.654-0.356-0.891    c-0.236-0.237-0.751-0.581-1.538-1.026c-1.572-0.878-2.605-1.626-3.087-2.25c-0.492-0.62-0.73-1.298-0.73-2.032    c0-0.947,0.364-1.72,1.103-2.319c0.736-0.6,1.689-0.899,2.851-0.899c1.208,0,2.442,0.34,3.711,1.021V9.83    c-1.444-0.876-2.627-1.313-3.55-1.313c-0.477,0-0.854,0.101-1.15,0.302C2.761,9.021,2.619,9.285,2.619,9.617    c0,0.289,0.128,0.561,0.393,0.821c0.264,0.259,0.727,0.57,1.388,0.936l0.876,0.498c2.053,1.162,3.081,2.451,3.081,3.862    c0,1.012-0.397,1.841-1.187,2.487c-0.79,0.648-1.812,0.972-3.055,0.972c-0.732,0-1.384-0.079-1.955-0.235    C1.585,18.805,0.87,18.514,0,18.094z"
         id="path17"
         style="fill:#00adee;fill-opacity:1" /><path
         fill="#231F20"
         d="M17.076,6.611c1.882,0,3.44,0.608,4.679,1.818c1.249,1.213,1.863,2.734,1.863,4.567    c0,1.778-0.628,3.259-1.885,4.433c-1.262,1.178-2.849,1.764-4.761,1.764c-1.855,0-3.399-0.595-4.647-1.788    c-1.241-1.195-1.861-2.686-1.861-4.474c0-1.809,0.626-3.314,1.881-4.514C13.599,7.214,15.181,6.611,17.076,6.611z M16.942,8.813    c-1.169,0-2.133,0.383-2.888,1.153c-0.744,0.769-1.125,1.746-1.125,2.934c0,1.183,0.389,2.146,1.156,2.892    c0.77,0.749,1.761,1.122,2.961,1.122c1.2,0,2.185-0.377,2.946-1.134c0.768-0.753,1.149-1.724,1.149-2.905    c0-1.17-0.397-2.14-1.191-2.908C19.154,9.196,18.151,8.813,16.942,8.813z"
         id="path19"
         style="fill:#00adee;fill-opacity:1" /><path
         fill="#231F20"
         d="M29.059,5.899c0-1.303,0.184-2.212,0.549-2.723c0.241-0.318,0.585-0.539,1.05-0.656V0.014    c-1.067,0.065-1.989,0.547-2.776,1.448c-0.843,0.976-1.271,2.453-1.271,4.438v0.74h-1.767v2.2h1.767v10.142h2.448V8.84h2.2v-2.2    h-2.2V5.899z"
         id="path21"
         style="fill:#00adee;fill-opacity:1" /><path
         fill="#231F20"
         d="M31.466,8.598l4.588-4.507V6.64h3.909v2.2h-3.909v6.04c0,1.41,0.586,2.115,1.762,2.115    c0.88,0,1.804-0.29,2.774-0.87v2.278c-0.937,0.528-1.959,0.79-3.074,0.79c-1.113,0-2.044-0.324-2.789-0.978    c-0.228-0.198-0.418-0.418-0.573-0.665c-0.154-0.245-0.28-0.565-0.381-0.965c-0.105-0.396-0.156-1.157-0.156-2.274V8.84h-2.152    V8.598z"
         id="path23"
         style="fill:#00adee;fill-opacity:1" /><path
         fill="#231F20"
         d="M47.294,16.39l0.574-0.682c1.608-1.923,2.75-3.438,3.421-4.554c0.673-1.112,1.138-2.099,1.399-2.951    c0.264-0.853,0.4-1.657,0.4-2.409c0-1.682-0.535-3.066-1.592-4.157c-0.963-0.99-2.159-1.523-3.587-1.62v2.521    c0.635,0.128,1.172,0.418,1.61,0.882c0.6,0.642,0.896,1.485,0.896,2.541c0,0.762-0.156,1.725-0.478,2.501    c-0.314,0.78-0.997,1.927-2.039,3.448c-1.038,1.523-2.438,3.372-4.207,5.555l-1.126,1.327v0.189h11.86V16.39H47.294z"
         id="path25"
         style="fill:#00adee;fill-opacity:1" /><path
         fill="#231F20"
         d="M60.502,19.193l-1.648-1.944c1.383-0.876,2.599-1.939,3.633-3.186c1.042-1.248,1.732-2.528,2.08-3.844    c-0.847,0.526-1.845,0.791-2.989,0.791c-1.429,0-2.656-0.531-3.682-1.597c-1.026-1.063-1.533-2.343-1.533-3.834    c0-1.556,0.539-2.876,1.632-3.958C59.091,0.541,60.421,0,61.996,0c1.766,0,3.214,0.64,4.343,1.916    c1.127,1.281,1.693,2.919,1.693,4.923c0,2.275-0.707,4.568-2.121,6.891C64.496,16.05,62.692,17.871,60.502,19.193z M65.09,7.553    c0.112-0.717,0.164-1.184,0.164-1.396c0-1.083-0.304-1.967-0.908-2.656c-0.604-0.689-1.377-1.031-2.328-1.031    c-0.864,0-1.583,0.291-2.153,0.876c-0.568,0.586-0.848,1.32-0.848,2.208c0,0.813,0.308,1.516,0.927,2.104    c0.612,0.593,1.348,0.887,2.208,0.887C63.156,8.544,64.139,8.215,65.09,7.553z"
         id="path27"
         style="fill:#00adee;fill-opacity:1" /></g></g><path
     style="opacity:0.22222224;fill:none;fill-opacity:1;stroke:none;stroke-width:4;stroke-miterlimit:4;stroke-dasharray:none;stroke-opacity:1"
     d="M 3.1656251,19.118688 C 2.3458703,19.020566 1.5547321,18.772024 0.40381374,18.251045 l -0.39454447,-0.178596 0,-1.287056 0,-1.287056 0.49898823,0.325257 c 0.6463317,0.4213 1.6817142,0.911712 2.3405806,1.108624 0.6907024,0.206425 1.4729796,0.219437 1.9580538,0.03257 0.366795,-0.141304 0.7736167,-0.462194 0.9028859,-0.712173 C 5.8366046,16.007358 5.8186935,15.521213 5.6716392,15.217439 5.5024289,14.867897 5.1844951,14.631021 3.6822413,13.735238 1.3078262,12.319393 0.60510847,11.656524 0.24599378,10.493846 0.11372324,10.065603 0.08725733,9.3349708 0.188161,8.8972814 0.39481087,8.0008971 1.1647202,7.1711291 2.1680812,6.763427 3.5923267,6.1847042 5.7075513,6.4027215 7.4897565,7.3119349 l 0.2350492,0.119913 0,1.1594252 0,1.1594252 -0.9206038,-0.458906 C 5.6081831,8.6955965 5.0342746,8.5238197 4.2136109,8.5164013 3.6358377,8.5111786 3.5733563,8.5222647 3.2507769,8.6872379 2.5043709,9.0689641 2.376715,9.7722602 2.9424344,10.385993 c 0.2803401,0.304133 0.7152236,0.596454 1.8598196,1.250136 1.2040726,0.687649 1.8303222,1.130386 2.3670324,1.673412 0.7951492,0.804506 1.1358211,1.529318 1.1385204,2.42231 0.00285,0.940843 -0.2503581,1.548578 -0.9271515,2.225346 -0.7717553,0.771725 -1.748899,1.147103 -3.1021701,1.191725 -0.3709626,0.01223 -0.8717496,-0.0014 -1.1128601,-0.03023 z"
     id="path4161"
     inkscape:connector-curvature="0" /></svg>